<svg width="204" height="218" viewBox="0 0 204 218" fill="none" xmlns="http://www.w3.org/2000/svg">
<path d="M190.218 144.008L182.895 148.213V134.766L190.184 130.573L190.218 144.008ZM190.295 125.968L182.973 130.173L183.039 108.938L190.329 104.733L190.295 125.968ZM175.684 135.21L168.35 139.415V125.968L175.673 121.752L175.684 135.21ZM175.684 117.159L168.361 121.364L168.428 99.0749L175.761 94.87L175.684 117.159ZM160.994 153.183L153.672 157.388V143.942L161.006 139.737L160.994 153.183ZM160.994 135.132L153.661 139.337V125.746L160.994 121.542V135.132ZM146.338 152.018L139.049 156.223V142.777L146.338 138.572V152.018ZM146.405 133.967L139.083 138.172V125.092L146.416 120.887L146.405 133.967ZM131.682 175.717L124.36 179.921L124.438 158.842L131.76 154.637L131.682 175.717ZM111.89 104.944V209.344L124.427 202.033V184.526L131.749 180.321L131.682 197.828L139.005 193.623L139.071 160.828L146.405 156.623L146.294 217.865L153.617 213.66L153.694 161.981L160.983 157.788V181.009L168.273 176.804L168.35 144.053L175.673 139.803L175.606 186.612L182.895 182.407V152.817L190.218 148.612V164.145L203.221 156.834V52.4331L111.89 104.944Z" fill="#F48020"/>
<path d="M106.53 17.4629L113.886 21.6678L102.17 28.4133L94.8034 24.2085L106.53 17.4629ZM90.7428 26.5605L98.1429 30.7654L79.5705 41.4495L72.2036 37.2447L90.7428 26.5605ZM106.198 34.5265L113.564 38.7757L101.837 45.5102L94.4705 41.3053L106.198 34.5265ZM90.4432 43.6241L97.81 47.8289L78.3168 59.0234L70.9277 54.8296L90.4432 43.6241ZM129.274 38.1544L136.641 42.3593L124.914 49.0937L117.547 44.8889L129.274 38.1544ZM113.487 47.2187L120.887 51.4125L108.982 58.269L101.615 54.0641L113.487 47.2187ZM135.676 51.3459L143.043 55.5508L131.283 62.3296L123.916 58.1247L135.676 51.3459ZM119.888 60.3991L127.255 64.6484L115.828 71.2053L108.461 67.0004L119.888 60.3991ZM163.701 52.0782L171.057 56.283L152.64 66.9006L145.273 62.6957L163.701 52.0782ZM111.889 104.944L203.209 52.4776L190.428 45.1551L175.117 53.9199L167.751 49.715L198.882 31.8194L191.504 27.67L147.037 53.1876L139.626 48.9939L168.272 32.5405L160.905 28.3357L140.624 40.0072L133.257 35.8024L173.109 12.7921L165.742 8.58725L117.547 36.4126L110.181 32.2077L138.827 15.7211L131.493 11.5162L117.869 19.349L110.513 15.1442L124.138 7.32246L111.323 0L19.8037 52.4776L111.889 104.944Z" fill="#62BA46"/>
<path d="M37.5553 152.451V144.086L49.4599 150.82V159.197L37.5553 152.451ZM53.4539 161.516V153.15L72.1706 163.834V172.211L53.4539 161.516ZM52.755 144.374V136.009L64.5485 142.743V151.12L52.755 144.374ZM68.6203 153.439V145.062L88.2578 156.257V164.666L68.6203 153.439ZM44.4118 122.851V114.474L56.2387 121.22V129.585L44.4118 122.851ZM60.2993 131.959V123.594L72.2371 130.439V138.816L60.2993 131.959ZM52.8992 110.88V102.559L64.7372 109.293V117.67L52.8992 110.88ZM68.7645 119.944V111.568L80.2585 118.124V126.501L68.7645 119.944ZM39.4969 86.4715V78.1061L58.0693 88.7237V97.1001L39.4969 86.4715ZM111.889 104.944L19.8039 52.4775V67.0337L35.4473 75.8095V84.186L19.8039 75.3768V83.7089L48.8164 100.207V108.661L0 80.6801V89.0232L40.4843 112.211V120.587L19.8039 108.86V117.226L48.7387 133.679V142.056L4.27144 116.649V124.992L33.6056 141.767V150.132L19.8039 142.311V156.878L111.889 209.344V104.944Z" fill="#3D5EE1"/>
</svg>
