<svg width="801" height="219" viewBox="0 0 801 219" fill="none" xmlns="http://www.w3.org/2000/svg">
<path d="M190.963 144.228L183.641 148.433V134.987L190.93 130.793L190.963 144.228ZM191.041 126.188L183.719 130.393L183.785 109.158L191.074 104.953L191.041 126.188ZM176.429 135.43L169.096 139.635V126.188L176.418 121.973L176.429 135.43ZM176.429 117.379L169.107 121.584L169.173 99.2951L176.507 95.0903L176.429 117.379ZM161.74 153.404L154.418 157.608V144.162L161.751 139.957L161.74 153.404ZM161.74 135.353L154.407 139.558V125.967L161.74 121.762V135.353ZM147.084 152.239L139.795 156.444V142.997L147.084 138.792V152.239ZM147.151 134.188L139.828 138.393V125.312L147.162 121.107L147.151 134.188ZM132.428 175.937L125.106 180.142L125.183 159.062L132.506 154.857L132.428 175.937ZM112.635 105.164V209.565L125.172 202.253V184.746L132.495 180.541L132.428 198.048L139.751 193.843L139.817 161.048L147.151 156.843L147.04 218.085L154.362 213.88L154.44 162.202L161.729 158.008V181.229L169.018 177.024L169.096 144.273L176.418 140.023L176.352 186.832L183.641 182.627V153.037L190.963 148.833V164.365L203.966 157.054V52.6533L112.635 105.164Z" fill="#F48020"/>
<path d="M107.276 17.6832L114.632 21.888L102.916 28.6336L95.549 24.4287L107.276 17.6832ZM91.4884 26.7807L98.8885 30.9856L80.3161 41.6697L72.9492 37.4649L91.4884 26.7807ZM106.943 34.7467L114.31 38.9959L102.583 45.7304L95.2161 41.5255L106.943 34.7467ZM91.1888 43.8443L98.5556 48.0491L79.0624 59.2436L71.6733 55.0498L91.1888 43.8443ZM130.02 38.3746L137.387 42.5795L125.66 49.3139L118.293 45.1091L130.02 38.3746ZM114.232 47.4389L121.632 51.6327L109.728 58.4892L102.361 54.2843L114.232 47.4389ZM136.422 51.5661L143.788 55.771L132.028 62.5498L124.661 58.345L136.422 51.5661ZM120.634 60.6194L128.001 64.8686L116.573 71.4255L109.206 67.2207L120.634 60.6194ZM164.447 52.2984L171.802 56.5032L153.385 67.1208L146.018 62.916L164.447 52.2984ZM112.635 105.164L203.955 52.6978L191.174 45.3753L175.863 54.1401L168.496 49.9352L199.628 32.0396L192.25 27.8902L147.782 53.4078L140.371 49.2141L169.018 32.7608L161.651 28.5559L141.37 40.2274L134.003 36.0226L173.855 13.0123L166.488 8.80746L118.293 36.6328L110.926 32.4279L139.572 15.9413L132.239 11.7364L118.615 19.5692L111.259 15.3644L124.883 7.54267L112.069 0.220215L20.5493 52.6978L112.635 105.164Z" fill="#62BA46"/>
<path d="M38.3009 152.671V144.306L50.2055 151.041V159.417L38.3009 152.671ZM54.1995 161.736V153.37L72.9162 164.055V172.431L54.1995 161.736ZM53.5006 144.595V136.229L65.2941 142.964V151.34L53.5006 144.595ZM69.3659 153.659V145.282L89.0034 156.477V164.887L69.3659 153.659ZM45.1574 123.071V114.695L56.9843 121.44V129.805L45.1574 123.071ZM61.0449 132.18V123.814L72.9827 130.66V139.036L61.0449 132.18ZM53.6448 111.1V102.779L65.4828 109.513V117.89L53.6448 111.1ZM69.5101 120.164V111.788L81.0041 118.345V126.721L69.5101 120.164ZM40.2425 86.6917V78.3263L58.8149 88.9439V97.3203L40.2425 86.6917ZM112.635 105.164L20.5495 52.6978V67.2539L36.193 76.0298V84.4062L20.5495 75.5971V83.9291L49.562 100.427V108.881L0.745605 80.9003V89.2434L41.2299 112.431V120.808L20.5495 109.081V117.446L49.4843 133.899V142.276L5.01704 116.869V125.212L34.3512 141.987V150.353L20.5495 142.531V157.098L112.635 209.565V105.164Z" fill="#3D5EE1"/>
<path d="M325.622 120.852C325.622 123.764 325.244 126.393 324.487 128.737C323.769 131.044 322.804 133.087 321.594 134.864C320.384 136.642 318.966 138.154 317.339 139.402C315.713 140.65 314.03 141.671 312.291 142.466C310.551 143.26 308.773 143.846 306.958 144.224C305.181 144.602 303.498 144.792 301.909 144.792H245.011V130.042H301.909C304.746 130.042 306.939 129.21 308.49 127.546C310.078 125.882 310.872 123.651 310.872 120.852C310.872 119.491 310.664 118.243 310.248 117.108C309.832 115.974 309.227 114.99 308.433 114.158C307.677 113.326 306.731 112.683 305.597 112.229C304.5 111.776 303.271 111.549 301.909 111.549H267.986C265.603 111.549 263.032 111.133 260.271 110.301C257.51 109.431 254.938 108.051 252.556 106.16C250.211 104.269 248.244 101.791 246.656 98.7282C245.105 95.6648 244.33 91.9208 244.33 87.496C244.33 83.0712 245.105 79.346 246.656 76.3205C248.244 73.2572 250.211 70.78 252.556 68.8891C254.938 66.9603 257.51 65.5799 260.271 64.7479C263.032 63.8781 265.603 63.4432 267.986 63.4432H318.19V78.1925H267.986C265.187 78.1925 262.994 79.0435 261.405 80.7453C259.855 82.4471 259.08 84.6974 259.08 87.496C259.08 90.3324 259.855 92.5826 261.405 94.2466C262.994 95.8728 265.187 96.6859 267.986 96.6859H301.909H302.023C303.611 96.7238 305.294 96.9507 307.072 97.3667C308.849 97.7449 310.608 98.35 312.347 99.182C314.125 100.014 315.808 101.073 317.396 102.359C318.985 103.607 320.384 105.12 321.594 106.897C322.842 108.675 323.825 110.717 324.544 113.024C325.263 115.331 325.622 117.94 325.622 120.852ZM352.738 144.792H337.989V63.4432H352.738V144.792ZM455.246 144.792H434.313L401.127 111.549H390.746V96.6859H401.127L434.313 63.4432H455.246L413.437 104.117L455.246 144.792ZM384.846 144.792H370.097V63.4432H384.846V144.792ZM544.309 144.792H529.56V124.823H477.71V144.792H462.961V104.117C462.961 98.1798 463.982 92.715 466.024 87.7229C468.066 82.7308 470.903 78.4384 474.533 74.8456C478.164 71.2528 482.457 68.4542 487.411 66.4498C492.365 64.4454 497.773 63.4432 503.635 63.4432H536.878C537.899 63.4432 538.863 63.6323 539.771 64.0105C540.679 64.3887 541.473 64.9181 542.154 65.5989C542.834 66.2796 543.364 67.0738 543.742 67.9814C544.12 68.8891 544.309 69.8535 544.309 70.8746V144.792ZM477.71 110.074H529.56V78.1925H503.635C503.181 78.1925 502.217 78.2682 500.742 78.4194C499.305 78.5329 497.622 78.8544 495.693 79.3838C493.802 79.9133 491.798 80.7264 489.68 81.8231C487.562 82.9199 485.614 84.4326 483.837 86.3614C482.059 88.2902 480.584 90.7106 479.412 93.6226C478.278 96.4968 477.71 99.9951 477.71 104.117V110.074ZM656.177 144.792H641.315V96.3456L615.163 142.352C614.52 143.525 613.612 144.413 612.44 145.018C611.305 145.624 610.076 145.926 608.753 145.926C607.467 145.926 606.256 145.624 605.122 145.018C604.025 144.413 603.155 143.525 602.512 142.352L576.247 96.3456V144.792H561.498V69.74C561.498 68.0382 561.99 66.5254 562.973 65.2018C563.994 63.8781 565.318 62.9894 566.944 62.5355C567.738 62.3464 568.532 62.2897 569.326 62.3653C570.121 62.4032 570.877 62.5733 571.596 62.8759C572.352 63.1406 573.033 63.5377 573.638 64.0672C574.243 64.5588 574.753 65.1639 575.169 65.8825L608.753 124.256L642.336 65.8825C643.205 64.4454 644.397 63.4243 645.91 62.8192C647.46 62.2141 649.067 62.1195 650.731 62.5355C652.32 62.9894 653.625 63.8781 654.646 65.2018C655.667 66.5254 656.177 68.0382 656.177 69.74V144.792ZM688.229 144.792H673.479V63.4432H688.229V144.792ZM786.766 138.495C786.766 139.554 786.558 140.537 786.142 141.445C785.764 142.352 785.234 143.146 784.553 143.827C783.91 144.47 783.135 144.981 782.228 145.359C781.32 145.737 780.356 145.926 779.334 145.926C778.427 145.926 777.5 145.756 776.555 145.416C775.647 145.075 774.834 144.527 774.115 143.77L720.224 87.496V144.792H705.474V69.74C705.474 68.2273 705.89 66.8658 706.722 65.6556C707.592 64.4076 708.689 63.481 710.012 62.8759C711.412 62.3086 712.849 62.1762 714.324 62.4788C715.799 62.7435 717.066 63.4243 718.125 64.521L772.016 120.739V63.4432H786.766V138.495Z" fill="#99AEFF"/>
<path d="M329.975 116.5C329.975 119.412 329.597 122.04 328.84 124.385C328.122 126.692 327.157 128.734 325.947 130.512C324.737 132.289 323.319 133.802 321.692 135.05C320.066 136.298 318.383 137.319 316.644 138.113C314.904 138.907 313.127 139.493 311.311 139.872C309.534 140.25 307.851 140.439 306.262 140.439H249.364V125.69H306.262C309.099 125.69 311.292 124.858 312.843 123.194C314.431 121.53 315.225 119.298 315.225 116.5C315.225 115.138 315.017 113.89 314.601 112.756C314.185 111.621 313.58 110.638 312.786 109.806C312.03 108.974 311.084 108.331 309.95 107.877C308.853 107.423 307.624 107.196 306.262 107.196H272.339C269.956 107.196 267.385 106.78 264.624 105.948C261.863 105.078 259.291 103.698 256.909 101.807C254.564 99.9161 252.597 97.4389 251.009 94.3756C249.459 91.3123 248.683 87.5682 248.683 83.1434C248.683 78.7186 249.459 74.9935 251.009 71.968C252.597 68.9046 254.564 66.4275 256.909 64.5366C259.291 62.6078 261.863 61.2274 264.624 60.3954C267.385 59.5256 269.956 59.0906 272.339 59.0906H322.543V73.84H272.339C269.54 73.84 267.347 74.6909 265.758 76.3928C264.208 78.0946 263.433 80.3448 263.433 83.1434C263.433 85.9798 264.208 88.2301 265.758 89.8941C267.347 91.5203 269.54 92.3334 272.339 92.3334H306.262H306.376C307.964 92.3712 309.647 92.5981 311.425 93.0141C313.202 93.3923 314.961 93.9974 316.7 94.8294C318.478 95.6615 320.161 96.7204 321.749 98.0062C323.338 99.2542 324.737 100.767 325.947 102.544C327.195 104.322 328.178 106.364 328.897 108.671C329.616 110.978 329.975 113.588 329.975 116.5ZM357.091 140.439H342.342V59.0906H357.091V140.439ZM459.599 140.439H438.666L405.48 107.196H395.099V92.3334H405.48L438.666 59.0906H459.599L417.79 99.7648L459.599 140.439ZM389.199 140.439H374.45V59.0906H389.199V140.439ZM548.662 140.439H533.913V120.471H482.063V140.439H467.314V99.7648C467.314 93.8272 468.335 88.3624 470.377 83.3703C472.419 78.3782 475.256 74.0858 478.886 70.493C482.517 66.9002 486.81 64.1016 491.764 62.0972C496.718 60.0928 502.126 59.0906 507.988 59.0906H541.231C542.252 59.0906 543.216 59.2797 544.124 59.6579C545.032 60.0361 545.826 60.5656 546.507 61.2463C547.187 61.9271 547.717 62.7213 548.095 63.6289C548.473 64.5366 548.662 65.5009 548.662 66.522V140.439ZM482.063 105.721H533.913V73.84H507.988C507.534 73.84 506.57 73.9156 505.095 74.0669C503.658 74.1804 501.975 74.5018 500.046 75.0313C498.155 75.5607 496.151 76.3739 494.033 77.4706C491.915 78.5673 489.967 80.0801 488.19 82.0089C486.412 83.9376 484.938 86.358 483.765 89.2701C482.631 92.1443 482.063 95.6425 482.063 99.7648V105.721ZM660.53 140.439H645.668V91.993L619.516 138C618.873 139.172 617.965 140.061 616.793 140.666C615.658 141.271 614.429 141.574 613.106 141.574C611.82 141.574 610.61 141.271 609.475 140.666C608.378 140.061 607.508 139.172 606.865 138L580.6 91.993V140.439H565.851V65.3875C565.851 63.6856 566.343 62.1729 567.326 60.8492C568.347 59.5256 569.671 58.6368 571.297 58.183C572.091 57.9939 572.885 57.9372 573.679 58.0128C574.474 58.0506 575.23 58.2208 575.949 58.5234C576.705 58.7881 577.386 59.1852 577.991 59.7147C578.596 60.2063 579.106 60.8114 579.522 61.53L613.106 119.903L646.689 61.53C647.559 60.0928 648.75 59.0717 650.263 58.4666C651.813 57.8615 653.42 57.767 655.084 58.183C656.673 58.6368 657.978 59.5256 658.999 60.8492C660.02 62.1729 660.53 63.6856 660.53 65.3875V140.439ZM692.582 140.439H677.832V59.0906H692.582V140.439ZM791.119 134.142C791.119 135.201 790.911 136.184 790.495 137.092C790.117 138 789.587 138.794 788.906 139.475C788.264 140.118 787.488 140.628 786.581 141.006C785.673 141.384 784.709 141.574 783.687 141.574C782.78 141.574 781.853 141.403 780.908 141.063C780 140.723 779.187 140.174 778.468 139.418L724.577 83.1434V140.439H709.827V65.3875C709.827 63.8747 710.243 62.5132 711.075 61.303C711.945 60.055 713.042 59.1285 714.365 58.5234C715.765 57.9561 717.202 57.8237 718.677 58.1263C720.152 58.391 721.419 59.0717 722.478 60.1685L776.369 116.386V59.0906H791.119V134.142Z" fill="url(#paint0_linear_59_219)"/>
<path d="M250.993 184.082C249.955 184.082 249.021 183.905 248.191 183.549C247.361 183.178 246.708 182.659 246.234 181.992C245.759 181.325 245.522 180.547 245.522 179.657H248.235C248.295 180.324 248.554 180.873 249.014 181.303C249.488 181.733 250.148 181.948 250.993 181.948C251.868 181.948 252.55 181.74 253.039 181.325C253.528 180.895 253.773 180.346 253.773 179.679C253.773 179.16 253.617 178.738 253.306 178.412C253.009 178.086 252.631 177.833 252.171 177.656C251.727 177.478 251.104 177.285 250.303 177.077C249.295 176.811 248.473 176.544 247.835 176.277C247.212 175.995 246.679 175.565 246.234 174.987C245.789 174.409 245.567 173.638 245.567 172.674C245.567 171.785 245.789 171.006 246.234 170.339C246.679 169.672 247.301 169.161 248.102 168.805C248.902 168.449 249.829 168.271 250.882 168.271C252.379 168.271 253.602 168.649 254.551 169.405C255.515 170.146 256.048 171.169 256.152 172.474H253.35C253.306 171.911 253.039 171.429 252.55 171.029C252.06 170.628 251.415 170.428 250.615 170.428C249.888 170.428 249.295 170.613 248.836 170.984C248.376 171.355 248.146 171.888 248.146 172.585C248.146 173.06 248.287 173.453 248.569 173.764C248.865 174.06 249.236 174.298 249.681 174.475C250.126 174.653 250.733 174.846 251.504 175.054C252.527 175.335 253.358 175.617 253.995 175.899C254.647 176.18 255.196 176.618 255.641 177.211C256.1 177.789 256.33 178.567 256.33 179.546C256.33 180.332 256.115 181.073 255.685 181.77C255.27 182.466 254.655 183.03 253.839 183.46C253.039 183.875 252.09 184.082 250.993 184.082ZM260.611 170.05C260.152 170.05 259.766 169.894 259.455 169.583C259.144 169.272 258.988 168.886 258.988 168.427C258.988 167.967 259.144 167.582 259.455 167.27C259.766 166.959 260.152 166.803 260.611 166.803C261.056 166.803 261.434 166.959 261.745 167.27C262.057 167.582 262.212 167.967 262.212 168.427C262.212 168.886 262.057 169.272 261.745 169.583C261.434 169.894 261.056 170.05 260.611 170.05ZM261.857 171.673V183.927H259.321V171.673H261.857ZM269.633 184.127C268.669 184.127 267.802 183.956 267.031 183.615C266.275 183.26 265.674 182.785 265.23 182.192C264.785 181.584 264.548 180.91 264.518 180.168H267.142C267.186 180.687 267.431 181.125 267.876 181.481C268.335 181.822 268.906 181.992 269.588 181.992C270.3 181.992 270.848 181.859 271.234 181.592C271.634 181.31 271.834 180.954 271.834 180.524C271.834 180.065 271.612 179.724 271.167 179.501C270.737 179.279 270.048 179.034 269.099 178.767C268.18 178.515 267.431 178.271 266.853 178.034C266.275 177.796 265.771 177.433 265.341 176.944C264.926 176.455 264.718 175.81 264.718 175.009C264.718 174.357 264.911 173.764 265.296 173.23C265.682 172.682 266.23 172.252 266.942 171.94C267.668 171.629 268.499 171.473 269.433 171.473C270.826 171.473 271.945 171.829 272.791 172.541C273.65 173.238 274.11 174.194 274.169 175.41H271.634C271.59 174.861 271.367 174.424 270.967 174.097C270.567 173.771 270.026 173.608 269.344 173.608C268.676 173.608 268.165 173.734 267.809 173.986C267.453 174.238 267.275 174.572 267.275 174.987C267.275 175.313 267.394 175.587 267.631 175.81C267.868 176.032 268.158 176.21 268.499 176.344C268.84 176.462 269.344 176.618 270.011 176.811C270.9 177.048 271.627 177.292 272.19 177.544C272.768 177.782 273.265 178.137 273.68 178.612C274.095 179.086 274.31 179.716 274.325 180.502C274.325 181.199 274.132 181.822 273.747 182.37C273.361 182.919 272.813 183.349 272.101 183.66C271.404 183.971 270.582 184.127 269.633 184.127ZM280.022 173.742V180.524C280.022 180.984 280.126 181.317 280.333 181.525C280.556 181.718 280.926 181.814 281.445 181.814H283.002V183.927H281C279.859 183.927 278.984 183.66 278.376 183.126C277.768 182.592 277.465 181.725 277.465 180.524V173.742H276.019V171.673H277.465V168.627H280.022V171.673H283.002V173.742H280.022ZM296.569 177.5C296.569 177.959 296.539 178.375 296.48 178.745H287.118C287.192 179.724 287.555 180.509 288.207 181.102C288.86 181.696 289.66 181.992 290.609 181.992C291.973 181.992 292.937 181.421 293.5 180.28H296.235C295.865 181.406 295.19 182.333 294.212 183.059C293.248 183.771 292.047 184.127 290.609 184.127C289.438 184.127 288.385 183.867 287.451 183.349C286.532 182.815 285.805 182.074 285.272 181.125C284.753 180.161 284.493 179.049 284.493 177.789C284.493 176.529 284.745 175.424 285.25 174.475C285.768 173.512 286.487 172.771 287.407 172.252C288.341 171.733 289.408 171.473 290.609 171.473C291.765 171.473 292.796 171.725 293.7 172.229C294.604 172.733 295.309 173.445 295.813 174.364C296.317 175.269 296.569 176.314 296.569 177.5ZM293.922 176.699C293.908 175.765 293.574 175.017 292.922 174.453C292.269 173.89 291.461 173.608 290.498 173.608C289.623 173.608 288.874 173.89 288.252 174.453C287.629 175.002 287.258 175.75 287.14 176.699H293.922ZM313.897 171.473C314.86 171.473 315.72 171.673 316.476 172.074C317.247 172.474 317.848 173.067 318.278 173.853C318.722 174.639 318.945 175.587 318.945 176.699V183.927H316.432V177.077C316.432 175.98 316.157 175.143 315.609 174.564C315.06 173.971 314.312 173.675 313.363 173.675C312.414 173.675 311.658 173.971 311.095 174.564C310.546 175.143 310.272 175.98 310.272 177.077V183.927H307.759V177.077C307.759 175.98 307.485 175.143 306.936 174.564C306.387 173.971 305.639 173.675 304.69 173.675C303.741 173.675 302.985 173.971 302.422 174.564C301.873 175.143 301.599 175.98 301.599 177.077V183.927H299.064V171.673H301.599V173.074C302.014 172.57 302.54 172.178 303.178 171.896C303.815 171.614 304.497 171.473 305.224 171.473C306.202 171.473 307.077 171.681 307.848 172.096C308.619 172.511 309.212 173.112 309.627 173.897C309.997 173.156 310.576 172.57 311.361 172.14C312.147 171.696 312.992 171.473 313.897 171.473ZM344.226 168.471V183.927H341.691V173.341L336.976 183.927H335.219L330.482 173.341V183.927H327.947V168.471H330.683L336.109 180.591L341.513 168.471H344.226ZM352.873 184.127C351.716 184.127 350.671 183.867 349.737 183.349C348.803 182.815 348.069 182.074 347.536 181.125C347.002 180.161 346.735 179.049 346.735 177.789C346.735 176.544 347.009 175.439 347.558 174.475C348.106 173.512 348.855 172.771 349.804 172.252C350.753 171.733 351.813 171.473 352.984 171.473C354.155 171.473 355.215 171.733 356.164 172.252C357.113 172.771 357.862 173.512 358.41 174.475C358.959 175.439 359.233 176.544 359.233 177.789C359.233 179.034 358.951 180.139 358.388 181.102C357.824 182.066 357.054 182.815 356.075 183.349C355.111 183.867 354.044 184.127 352.873 184.127ZM352.873 181.925C353.525 181.925 354.133 181.77 354.696 181.458C355.275 181.147 355.742 180.68 356.097 180.057C356.453 179.435 356.631 178.679 356.631 177.789C356.631 176.899 356.461 176.151 356.12 175.543C355.779 174.92 355.326 174.453 354.763 174.142C354.2 173.831 353.592 173.675 352.939 173.675C352.287 173.675 351.679 173.831 351.116 174.142C350.567 174.453 350.13 174.92 349.804 175.543C349.478 176.151 349.315 176.899 349.315 177.789C349.315 179.108 349.648 180.131 350.315 180.858C350.997 181.57 351.85 181.925 352.873 181.925ZM367.921 171.473C368.885 171.473 369.745 171.673 370.501 172.074C371.272 172.474 371.872 173.067 372.302 173.853C372.732 174.639 372.947 175.587 372.947 176.699V183.927H370.434V177.077C370.434 175.98 370.16 175.143 369.611 174.564C369.063 173.971 368.314 173.675 367.365 173.675C366.417 173.675 365.66 173.971 365.097 174.564C364.548 175.143 364.274 175.98 364.274 177.077V183.927H361.739V171.673H364.274V173.074C364.689 172.57 365.216 172.178 365.853 171.896C366.505 171.614 367.195 171.473 367.921 171.473ZM377.471 170.05C377.011 170.05 376.626 169.894 376.314 169.583C376.003 169.272 375.847 168.886 375.847 168.427C375.847 167.967 376.003 167.582 376.314 167.27C376.626 166.959 377.011 166.803 377.471 166.803C377.915 166.803 378.294 166.959 378.605 167.27C378.916 167.582 379.072 167.967 379.072 168.427C379.072 168.886 378.916 169.272 378.605 169.583C378.294 169.894 377.915 170.05 377.471 170.05ZM378.716 171.673V183.927H376.181V171.673H378.716ZM385.002 173.742V180.524C385.002 180.984 385.106 181.317 385.314 181.525C385.536 181.718 385.907 181.814 386.425 181.814H387.982V183.927H385.981C384.839 183.927 383.964 183.66 383.357 183.126C382.749 182.592 382.445 181.725 382.445 180.524V173.742H380.999V171.673H382.445V168.627H385.002V171.673H387.982V173.742H385.002ZM395.634 184.127C394.477 184.127 393.432 183.867 392.498 183.349C391.564 182.815 390.83 182.074 390.296 181.125C389.763 180.161 389.496 179.049 389.496 177.789C389.496 176.544 389.77 175.439 390.319 174.475C390.867 173.512 391.616 172.771 392.565 172.252C393.514 171.733 394.574 171.473 395.745 171.473C396.916 171.473 397.976 171.733 398.925 172.252C399.874 172.771 400.622 173.512 401.171 174.475C401.72 175.439 401.994 176.544 401.994 177.789C401.994 179.034 401.712 180.139 401.149 181.102C400.585 182.066 399.814 182.815 398.836 183.349C397.872 183.867 396.805 184.127 395.634 184.127ZM395.634 181.925C396.286 181.925 396.894 181.77 397.457 181.458C398.035 181.147 398.502 180.68 398.858 180.057C399.214 179.435 399.392 178.679 399.392 177.789C399.392 176.899 399.221 176.151 398.88 175.543C398.539 174.92 398.087 174.453 397.524 174.142C396.961 173.831 396.353 173.675 395.7 173.675C395.048 173.675 394.44 173.831 393.877 174.142C393.328 174.453 392.891 174.92 392.565 175.543C392.239 176.151 392.076 176.899 392.076 177.789C392.076 179.108 392.409 180.131 393.076 180.858C393.758 181.57 394.611 181.925 395.634 181.925ZM407.035 173.453C407.406 172.83 407.895 172.348 408.503 172.007C409.126 171.651 409.859 171.473 410.704 171.473V174.097H410.06C409.066 174.097 408.31 174.349 407.791 174.854C407.287 175.358 407.035 176.232 407.035 177.478V183.927H404.5V171.673H407.035V173.453ZM414.325 170.05C413.865 170.05 413.48 169.894 413.168 169.583C412.857 169.272 412.701 168.886 412.701 168.427C412.701 167.967 412.857 167.582 413.168 167.27C413.48 166.959 413.865 166.803 414.325 166.803C414.769 166.803 415.147 166.959 415.459 167.27C415.77 167.582 415.926 167.967 415.926 168.427C415.926 168.886 415.77 169.272 415.459 169.583C415.147 169.894 414.769 170.05 414.325 170.05ZM415.57 171.673V183.927H413.035V171.673H415.57ZM425.081 171.473C426.044 171.473 426.904 171.673 427.66 172.074C428.431 172.474 429.032 173.067 429.462 173.853C429.891 174.639 430.106 175.587 430.106 176.699V183.927H427.594V177.077C427.594 175.98 427.319 175.143 426.771 174.564C426.222 173.971 425.473 173.675 424.525 173.675C423.576 173.675 422.82 173.971 422.256 174.564C421.708 175.143 421.434 175.98 421.434 177.077V183.927H418.898V171.673H421.434V173.074C421.849 172.57 422.375 172.178 423.012 171.896C423.665 171.614 424.354 171.473 425.081 171.473ZM438.277 171.473C439.226 171.473 440.064 171.666 440.79 172.052C441.531 172.422 442.109 172.889 442.525 173.453V171.673H445.082V184.127C445.082 185.254 444.845 186.254 444.37 187.129C443.896 188.019 443.207 188.715 442.302 189.219C441.413 189.724 440.345 189.976 439.1 189.976C437.439 189.976 436.061 189.583 434.964 188.797C433.866 188.026 433.244 186.973 433.096 185.639H435.608C435.801 186.277 436.209 186.788 436.832 187.174C437.469 187.574 438.225 187.774 439.1 187.774C440.123 187.774 440.946 187.463 441.568 186.84C442.206 186.217 442.525 185.313 442.525 184.127V182.081C442.095 182.659 441.509 183.148 440.768 183.549C440.041 183.934 439.211 184.127 438.277 184.127C437.21 184.127 436.231 183.86 435.342 183.326C434.467 182.778 433.77 182.022 433.251 181.058C432.747 180.08 432.495 178.975 432.495 177.745C432.495 176.514 432.747 175.424 433.251 174.475C433.77 173.527 434.467 172.793 435.342 172.274C436.231 171.74 437.21 171.473 438.277 171.473ZM442.525 177.789C442.525 176.944 442.347 176.21 441.991 175.587C441.65 174.965 441.198 174.49 440.634 174.164C440.071 173.838 439.463 173.675 438.811 173.675C438.158 173.675 437.551 173.838 436.987 174.164C436.424 174.475 435.964 174.942 435.608 175.565C435.268 176.173 435.097 176.899 435.097 177.745C435.097 178.59 435.268 179.331 435.608 179.968C435.964 180.606 436.424 181.095 436.987 181.436C437.565 181.762 438.173 181.925 438.811 181.925C439.463 181.925 440.071 181.762 440.634 181.436C441.198 181.11 441.65 180.635 441.991 180.013C442.347 179.375 442.525 178.634 442.525 177.789ZM464.174 168.471V170.539H460.059V183.927H457.524V170.539H453.388V168.471H464.174ZM477.838 171.673V183.927H475.303V182.481C474.902 182.985 474.376 183.386 473.724 183.682C473.086 183.964 472.404 184.105 471.678 184.105C470.714 184.105 469.847 183.905 469.076 183.504C468.32 183.104 467.72 182.511 467.275 181.725C466.845 180.939 466.63 179.991 466.63 178.879V171.673H469.143V178.501C469.143 179.598 469.417 180.443 469.966 181.036C470.514 181.614 471.263 181.903 472.212 181.903C473.16 181.903 473.909 181.614 474.458 181.036C475.021 180.443 475.303 179.598 475.303 178.501V171.673H477.838ZM486.12 171.473C487.069 171.473 487.906 171.666 488.633 172.052C489.374 172.422 489.952 172.889 490.367 173.453V171.673H492.925V184.127C492.925 185.254 492.687 186.254 492.213 187.129C491.739 188.019 491.049 188.715 490.145 189.219C489.255 189.724 488.188 189.976 486.943 189.976C485.282 189.976 483.903 189.583 482.806 188.797C481.709 188.026 481.087 186.973 480.938 185.639H483.451C483.644 186.277 484.052 186.788 484.674 187.174C485.312 187.574 486.068 187.774 486.943 187.774C487.966 187.774 488.788 187.463 489.411 186.84C490.049 186.217 490.367 185.313 490.367 184.127V182.081C489.937 182.659 489.352 183.148 488.61 183.549C487.884 183.934 487.054 184.127 486.12 184.127C485.052 184.127 484.074 183.86 483.184 183.326C482.31 182.778 481.613 182.022 481.094 181.058C480.59 180.08 480.338 178.975 480.338 177.745C480.338 176.514 480.59 175.424 481.094 174.475C481.613 173.527 482.31 172.793 483.184 172.274C484.074 171.74 485.052 171.473 486.12 171.473ZM490.367 177.789C490.367 176.944 490.189 176.21 489.834 175.587C489.493 174.965 489.04 174.49 488.477 174.164C487.914 173.838 487.306 173.675 486.653 173.675C486.001 173.675 485.393 173.838 484.83 174.164C484.267 174.475 483.807 174.942 483.451 175.565C483.11 176.173 482.94 176.899 482.94 177.745C482.94 178.59 483.11 179.331 483.451 179.968C483.807 180.606 484.267 181.095 484.83 181.436C485.408 181.762 486.016 181.925 486.653 181.925C487.306 181.925 487.914 181.762 488.477 181.436C489.04 181.11 489.493 180.635 489.834 180.013C490.189 179.375 490.367 178.634 490.367 177.789ZM495.409 177.745C495.409 176.514 495.661 175.424 496.166 174.475C496.684 173.527 497.381 172.793 498.256 172.274C499.145 171.74 500.124 171.473 501.191 171.473C502.155 171.473 502.993 171.666 503.704 172.052C504.431 172.422 505.009 172.889 505.439 173.453V171.673H507.996V183.927H505.439V182.103C505.009 182.681 504.423 183.163 503.682 183.549C502.941 183.934 502.096 184.127 501.147 184.127C500.094 184.127 499.131 183.86 498.256 183.326C497.381 182.778 496.684 182.022 496.166 181.058C495.661 180.08 495.409 178.975 495.409 177.745ZM505.439 177.789C505.439 176.944 505.261 176.21 504.905 175.587C504.564 174.965 504.112 174.49 503.549 174.164C502.985 173.838 502.377 173.675 501.725 173.675C501.073 173.675 500.465 173.838 499.902 174.164C499.338 174.475 498.879 174.942 498.523 175.565C498.182 176.173 498.011 176.899 498.011 177.745C498.011 178.59 498.182 179.331 498.523 179.968C498.879 180.606 499.338 181.095 499.902 181.436C500.48 181.762 501.088 181.925 501.725 181.925C502.377 181.925 502.985 181.762 503.549 181.436C504.112 181.11 504.564 180.635 504.905 180.013C505.261 179.375 505.439 178.634 505.439 177.789ZM515.774 184.127C514.81 184.127 513.943 183.956 513.172 183.615C512.416 183.26 511.815 182.785 511.371 182.192C510.926 181.584 510.689 180.91 510.659 180.168H513.283C513.328 180.687 513.572 181.125 514.017 181.481C514.477 181.822 515.047 181.992 515.729 181.992C516.441 181.992 516.989 181.859 517.375 181.592C517.775 181.31 517.975 180.954 517.975 180.524C517.975 180.065 517.753 179.724 517.308 179.501C516.878 179.279 516.189 179.034 515.24 178.767C514.321 178.515 513.572 178.271 512.994 178.034C512.416 177.796 511.912 177.433 511.482 176.944C511.067 176.455 510.859 175.81 510.859 175.009C510.859 174.357 511.052 173.764 511.437 173.23C511.823 172.682 512.371 172.252 513.083 171.94C513.809 171.629 514.64 171.473 515.574 171.473C516.967 171.473 518.087 171.829 518.932 172.541C519.792 173.238 520.251 174.194 520.31 175.41H517.775C517.731 174.861 517.508 174.424 517.108 174.097C516.708 173.771 516.167 173.608 515.485 173.608C514.818 173.608 514.306 173.734 513.95 173.986C513.594 174.238 513.417 174.572 513.417 174.987C513.417 175.313 513.535 175.587 513.772 175.81C514.01 176.032 514.299 176.21 514.64 176.344C514.981 176.462 515.485 176.618 516.152 176.811C517.041 177.048 517.768 177.292 518.331 177.544C518.909 177.782 519.406 178.137 519.821 178.612C520.236 179.086 520.451 179.716 520.466 180.502C520.466 181.199 520.273 181.822 519.888 182.37C519.502 182.919 518.954 183.349 518.242 183.66C517.545 183.971 516.723 184.127 515.774 184.127ZM538.3 180.769H531.829L530.717 183.927H528.07L533.608 168.449H536.543L542.08 183.927H539.412L538.3 180.769ZM537.588 178.701L535.075 171.518L532.54 178.701H537.588ZM549.336 177.811L554.985 183.927H551.56L547.023 178.656V183.927H544.488V167.47H547.023V177.033L551.471 171.673H554.985L549.336 177.811ZM563.14 171.473C564.074 171.473 564.904 171.673 565.63 172.074C566.372 172.474 566.95 173.067 567.365 173.853C567.795 174.639 568.01 175.587 568.01 176.699V183.927H565.497V177.077C565.497 175.98 565.223 175.143 564.674 174.564C564.125 173.971 563.377 173.675 562.428 173.675C561.479 173.675 560.723 173.971 560.16 174.564C559.611 175.143 559.337 175.98 559.337 177.077V183.927H556.802V167.47H559.337V173.097C559.767 172.578 560.308 172.178 560.96 171.896C561.627 171.614 562.354 171.473 563.14 171.473ZM572.533 170.05C572.074 170.05 571.688 169.894 571.377 169.583C571.066 169.272 570.91 168.886 570.91 168.427C570.91 167.967 571.066 167.582 571.377 167.27C571.688 166.959 572.074 166.803 572.533 166.803C572.978 166.803 573.356 166.959 573.667 167.27C573.979 167.582 574.134 167.967 574.134 168.427C574.134 168.886 573.979 169.272 573.667 169.583C573.356 169.894 572.978 170.05 572.533 170.05ZM573.779 171.673V183.927H571.243V171.673H573.779ZM579.642 173.453C580.013 172.83 580.502 172.348 581.11 172.007C581.733 171.651 582.467 171.473 583.312 171.473V174.097H582.667C581.673 174.097 580.917 174.349 580.398 174.854C579.894 175.358 579.642 176.232 579.642 177.478V183.927H577.107V171.673H579.642V173.453ZM601.404 168.471V170.539H597.29V183.927H594.754V170.539H590.618V168.471H601.404ZM615.201 177.5C615.201 177.959 615.172 178.375 615.112 178.745H605.75C605.824 179.724 606.188 180.509 606.84 181.102C607.492 181.696 608.293 181.992 609.242 181.992C610.606 181.992 611.569 181.421 612.133 180.28H614.868C614.497 181.406 613.823 182.333 612.844 183.059C611.881 183.771 610.68 184.127 609.242 184.127C608.07 184.127 607.018 183.867 606.084 183.349C605.165 182.815 604.438 182.074 603.904 181.125C603.385 180.161 603.126 179.049 603.126 177.789C603.126 176.529 603.378 175.424 603.882 174.475C604.401 173.512 605.12 172.771 606.039 172.252C606.973 171.733 608.041 171.473 609.242 171.473C610.398 171.473 611.428 171.725 612.333 172.229C613.237 172.733 613.941 173.445 614.445 174.364C614.949 175.269 615.201 176.314 615.201 177.5ZM612.555 176.699C612.54 175.765 612.207 175.017 611.554 174.453C610.902 173.89 610.094 173.608 609.13 173.608C608.256 173.608 607.507 173.89 606.884 174.453C606.262 175.002 605.891 175.75 605.772 176.699H612.555ZM622.544 177.811L628.193 183.927H624.768L620.231 178.656V183.927H617.696V167.47H620.231V177.033L624.679 171.673H628.193L622.544 177.811ZM636.192 171.473C637.156 171.473 638.016 171.673 638.772 172.074C639.543 172.474 640.143 173.067 640.573 173.853C641.003 174.639 641.218 175.587 641.218 176.699V183.927H638.705V177.077C638.705 175.98 638.431 175.143 637.882 174.564C637.334 173.971 636.585 173.675 635.636 173.675C634.687 173.675 633.931 173.971 633.368 174.564C632.819 175.143 632.545 175.98 632.545 177.077V183.927H630.01V171.673H632.545V173.074C632.96 172.57 633.486 172.178 634.124 171.896C634.776 171.614 635.466 171.473 636.192 171.473ZM645.742 170.05C645.282 170.05 644.896 169.894 644.585 169.583C644.274 169.272 644.118 168.886 644.118 168.427C644.118 167.967 644.274 167.582 644.585 167.27C644.896 166.959 645.282 166.803 645.742 166.803C646.186 166.803 646.564 166.959 646.876 167.27C647.187 167.582 647.343 167.967 647.343 168.427C647.343 168.886 647.187 169.272 646.876 169.583C646.564 169.894 646.186 170.05 645.742 170.05ZM646.987 171.673V183.927H644.452V171.673H646.987ZM655.163 177.811L660.812 183.927H657.387L652.85 178.656V183.927H650.315V167.47H652.85V177.033L657.298 171.673H660.812L655.163 177.811ZM670.941 168.471V183.927H668.406V168.471H670.941ZM680.451 171.473C681.415 171.473 682.275 171.673 683.031 172.074C683.802 172.474 684.402 173.067 684.832 173.853C685.262 174.639 685.477 175.587 685.477 176.699V183.927H682.964V177.077C682.964 175.98 682.69 175.143 682.142 174.564C681.593 173.971 680.844 173.675 679.895 173.675C678.947 173.675 678.191 173.971 677.627 174.564C677.079 175.143 676.804 175.98 676.804 177.077V183.927H674.269V171.673H676.804V173.074C677.219 172.57 677.746 172.178 678.383 171.896C679.036 171.614 679.725 171.473 680.451 171.473ZM693.848 173.742H691.58V183.927H689.022V173.742H687.577V171.673H689.022V170.806C689.022 169.398 689.393 168.375 690.134 167.737C690.89 167.085 692.069 166.759 693.67 166.759V168.871C692.899 168.871 692.358 169.02 692.047 169.316C691.735 169.598 691.58 170.095 691.58 170.806V171.673H693.848V173.742ZM701.41 184.127C700.253 184.127 699.208 183.867 698.274 183.349C697.34 182.815 696.606 182.074 696.073 181.125C695.539 180.161 695.272 179.049 695.272 177.789C695.272 176.544 695.546 175.439 696.095 174.475C696.643 173.512 697.392 172.771 698.341 172.252C699.29 171.733 700.35 171.473 701.521 171.473C702.692 171.473 703.752 171.733 704.701 172.252C705.65 172.771 706.399 173.512 706.947 174.475C707.496 175.439 707.77 176.544 707.77 177.789C707.77 179.034 707.488 180.139 706.925 181.102C706.362 182.066 705.591 182.815 704.612 183.349C703.648 183.867 702.581 184.127 701.41 184.127ZM701.41 181.925C702.062 181.925 702.67 181.77 703.233 181.458C703.812 181.147 704.279 180.68 704.634 180.057C704.99 179.435 705.168 178.679 705.168 177.789C705.168 176.899 704.998 176.151 704.657 175.543C704.316 174.92 703.863 174.453 703.3 174.142C702.737 173.831 702.129 173.675 701.477 173.675C700.824 173.675 700.216 173.831 699.653 174.142C699.104 174.453 698.667 174.92 698.341 175.543C698.015 176.151 697.852 176.899 697.852 177.789C697.852 179.108 698.185 180.131 698.852 180.858C699.534 181.57 700.387 181.925 701.41 181.925ZM712.811 173.453C713.182 172.83 713.671 172.348 714.279 172.007C714.902 171.651 715.636 171.473 716.481 171.473V174.097H715.836C714.842 174.097 714.086 174.349 713.567 174.854C713.063 175.358 712.811 176.232 712.811 177.478V183.927H710.276V171.673H712.811V173.453ZM733.644 171.473C734.607 171.473 735.467 171.673 736.223 172.074C736.994 172.474 737.595 173.067 738.025 173.853C738.47 174.639 738.692 175.587 738.692 176.699V183.927H736.179V177.077C736.179 175.98 735.905 175.143 735.356 174.564C734.808 173.971 734.059 173.675 733.11 173.675C732.161 173.675 731.405 173.971 730.842 174.564C730.293 175.143 730.019 175.98 730.019 177.077V183.927H727.506V177.077C727.506 175.98 727.232 175.143 726.683 174.564C726.135 173.971 725.386 173.675 724.437 173.675C723.488 173.675 722.732 173.971 722.169 174.564C721.62 175.143 721.346 175.98 721.346 177.077V183.927H718.811V171.673H721.346V173.074C721.761 172.57 722.287 172.178 722.925 171.896C723.562 171.614 724.244 171.473 724.971 171.473C725.949 171.473 726.824 171.681 727.595 172.096C728.366 172.511 728.959 173.112 729.374 173.897C729.745 173.156 730.323 172.57 731.109 172.14C731.894 171.696 732.739 171.473 733.644 171.473ZM741.073 177.745C741.073 176.514 741.325 175.424 741.829 174.475C742.348 173.527 743.045 172.793 743.919 172.274C744.809 171.74 745.787 171.473 746.855 171.473C747.818 171.473 748.656 171.666 749.368 172.052C750.094 172.422 750.672 172.889 751.102 173.453V171.673H753.66V183.927H751.102V182.103C750.672 182.681 750.087 183.163 749.345 183.549C748.604 183.934 747.759 184.127 746.81 184.127C745.758 184.127 744.794 183.86 743.919 183.326C743.045 182.778 742.348 182.022 741.829 181.058C741.325 180.08 741.073 178.975 741.073 177.745ZM751.102 177.789C751.102 176.944 750.924 176.21 750.569 175.587C750.228 174.965 749.775 174.49 749.212 174.164C748.649 173.838 748.041 173.675 747.388 173.675C746.736 173.675 746.128 173.838 745.565 174.164C745.002 174.475 744.542 174.942 744.186 175.565C743.845 176.173 743.675 176.899 743.675 177.745C743.675 178.59 743.845 179.331 744.186 179.968C744.542 180.606 745.002 181.095 745.565 181.436C746.143 181.762 746.751 181.925 747.388 181.925C748.041 181.925 748.649 181.762 749.212 181.436C749.775 181.11 750.228 180.635 750.569 180.013C750.924 179.375 751.102 178.634 751.102 177.789ZM759.947 173.742V180.524C759.947 180.984 760.051 181.317 760.258 181.525C760.481 181.718 760.852 181.814 761.37 181.814H762.927V183.927H760.926C759.784 183.927 758.909 183.66 758.302 183.126C757.694 182.592 757.39 181.725 757.39 180.524V173.742H755.944V171.673H757.39V168.627H759.947V171.673H762.927V173.742H759.947ZM766.553 170.05C766.094 170.05 765.708 169.894 765.397 169.583C765.086 169.272 764.93 168.886 764.93 168.427C764.93 167.967 765.086 167.582 765.397 167.27C765.708 166.959 766.094 166.803 766.553 166.803C766.998 166.803 767.376 166.959 767.688 167.27C767.999 167.582 768.155 167.967 768.155 168.427C768.155 168.886 767.999 169.272 767.688 169.583C767.376 169.894 766.998 170.05 766.553 170.05ZM767.799 171.673V183.927H765.264V171.673H767.799ZM775.975 177.811L781.624 183.927H778.199L773.662 178.656V183.927H771.127V167.47H773.662V177.033L778.11 171.673H781.624L775.975 177.811ZM782.596 177.745C782.596 176.514 782.848 175.424 783.352 174.475C783.871 173.527 784.568 172.793 785.442 172.274C786.332 171.74 787.31 171.473 788.378 171.473C789.341 171.473 790.179 171.666 790.891 172.052C791.617 172.422 792.195 172.889 792.625 173.453V171.673H795.183V183.927H792.625V182.103C792.195 182.681 791.61 183.163 790.868 183.549C790.127 183.934 789.282 184.127 788.333 184.127C787.281 184.127 786.317 183.86 785.442 183.326C784.568 182.778 783.871 182.022 783.352 181.058C782.848 180.08 782.596 178.975 782.596 177.745ZM792.625 177.789C792.625 176.944 792.447 176.21 792.092 175.587C791.751 174.965 791.298 174.49 790.735 174.164C790.172 173.838 789.564 173.675 788.911 173.675C788.259 173.675 787.651 173.838 787.088 174.164C786.525 174.475 786.065 174.942 785.709 175.565C785.368 176.173 785.198 176.899 785.198 177.745C785.198 178.59 785.368 179.331 785.709 179.968C786.065 180.606 786.525 181.095 787.088 181.436C787.666 181.762 788.274 181.925 788.911 181.925C789.564 181.925 790.172 181.762 790.735 181.436C791.298 181.11 791.751 180.635 792.092 180.013C792.447 179.375 792.625 178.634 792.625 177.789Z" fill="#1A41DE"/>
<defs>
<linearGradient id="paint0_linear_59_219" x1="243.237" y1="25.439" x2="800.251" y2="138.547" gradientUnits="userSpaceOnUse">
<stop stop-color="#3D5EE1"/>
<stop offset="1" stop-color="#2246D7"/>
</linearGradient>
</defs>
</svg>
